<svg width="16" height="18" viewBox="0 0 16 18" fill="none" xmlns="http://www.w3.org/2000/svg">
<path d="M5.5 12.75C4.91667 12.75 4.42361 12.5486 4.02083 12.1459C3.61806 11.7431 3.41667 11.25 3.41667 10.6667C3.41667 10.0834 3.61806 9.5903 4.02083 9.18752C4.42361 8.78474 4.91667 8.58335 5.5 8.58335C6.08333 8.58335 6.57639 8.78474 6.97917 9.18752C7.38194 9.5903 7.58333 10.0834 7.58333 10.6667C7.58333 11.25 7.38194 11.7431 6.97917 12.1459C6.57639 12.5486 6.08333 12.75 5.5 12.75ZM2.16667 17.3334C1.70833 17.3334 1.31597 17.1702 0.989583 16.8438C0.663194 16.5174 0.5 16.125 0.5 15.6667V4.00002C0.5 3.54169 0.663194 3.14933 0.989583 2.82294C1.31597 2.49655 1.70833 2.33335 2.16667 2.33335H3V0.666687H4.66667V2.33335H11.3333V0.666687H13V2.33335H13.8333C14.2917 2.33335 14.684 2.49655 15.0104 2.82294C15.3368 3.14933 15.5 3.54169 15.5 4.00002V15.6667C15.5 16.125 15.3368 16.5174 15.0104 16.8438C14.684 17.1702 14.2917 17.3334 13.8333 17.3334H2.16667ZM2.16667 15.6667H13.8333V7.33335H2.16667V15.6667ZM2.16667 5.66669H13.8333V4.00002H2.16667V5.66669Z" fill="#1E1E1E"/>
</svg>
