<svg width="78" height="70" viewBox="0 0 78 70" fill="none" xmlns="http://www.w3.org/2000/svg">
<path d="M39.0001 55.5083C43.6001 55.5083 47.4654 53.8951 50.5959 50.6688C53.7265 47.4424 55.2917 43.4972 55.2917 38.8333C55.2917 38.5139 55.2758 38.2583 55.2438 38.0667C55.2119 37.875 55.132 37.6194 55.0042 37.3H49.2542C49.1904 37.6194 49.2223 37.875 49.3501 38.0667C49.4779 38.2583 49.5417 38.5139 49.5417 38.8333C49.5417 41.7083 48.4876 44.2479 46.3792 46.4521C44.2709 48.6562 41.8112 49.7583 39.0001 49.7583H26.6376C27.7876 51.4833 29.4966 52.8729 31.7647 53.9271C34.0327 54.9813 36.4445 55.5083 39.0001 55.5083ZM22.7084 41.1333H27.9792C28.0431 40.8139 28.139 40.4306 28.2667 39.9833C28.3945 39.5361 28.4584 39.1528 28.4584 38.8333C28.4584 36.0222 29.4966 33.6264 31.573 31.6458C33.6494 29.6653 36.1251 28.675 39.0001 28.675H51.5542C50.0848 26.95 48.248 25.5604 46.0438 24.5063C43.8397 23.4521 41.4917 22.925 39.0001 22.925C34.3362 22.925 30.4549 24.4264 27.3563 27.4292C24.2577 30.4319 22.7084 34.2333 22.7084 38.8333C22.7084 39.1528 22.7244 39.5361 22.7563 39.9833C22.7883 40.4306 22.7723 40.8139 22.7084 41.1333ZM6.41675 69.5C4.88341 69.5 3.54175 68.925 2.39175 67.775C1.24175 66.625 0.666748 65.2833 0.666748 63.75V14.5875C0.666748 13.1181 1.24175 11.7924 2.39175 10.6104C3.54175 9.42847 4.88341 8.8375 6.41675 8.8375H20.5042L27.5001 0.5H50.5001L57.4959 8.8375H71.5834C73.0529 8.8375 74.3786 9.42847 75.5605 10.6104C76.7424 11.7924 77.3334 13.1181 77.3334 14.5875V63.75C77.3334 65.2833 76.7424 66.625 75.5605 67.775C74.3786 68.925 73.0529 69.5 71.5834 69.5H6.41675ZM6.41675 63.75H71.5834V14.5875H54.8126L47.8167 6.25H30.1834L23.1876 14.5875H6.41675V63.75Z" fill="#EAF9FE"/>
</svg>
