<svg width="8" height="7" viewBox="0 0 8 7" fill="none" xmlns="http://www.w3.org/2000/svg">
<path d="M2.66666 5.06637L6.59999 1.13304C6.72221 1.01082 6.87777 0.949707 7.06666 0.949707C7.25555 0.949707 7.4111 1.01082 7.53333 1.13304C7.65555 1.25526 7.71666 1.41082 7.71666 1.59971C7.71666 1.7886 7.65555 1.94415 7.53333 2.06637L3.13333 6.46637C2.99999 6.59971 2.84444 6.66637 2.66666 6.66637C2.48888 6.66637 2.33333 6.59971 2.19999 6.46637L0.466659 4.73304C0.344436 4.61082 0.283325 4.45526 0.283325 4.26637C0.283325 4.07748 0.344436 3.92193 0.466659 3.79971C0.588881 3.67748 0.744436 3.61637 0.933325 3.61637C1.12221 3.61637 1.27777 3.67748 1.39999 3.79971L2.66666 5.06637Z" fill="#6B6B6B"/>
</svg>
