<svg width="16" height="8" viewBox="0 0 16 8" fill="none" xmlns="http://www.w3.org/2000/svg">
<path d="M1.16667 4.7003C1.03334 4.56697 0.969448 4.41141 0.975004 4.23363C0.980559 4.05586 1.05 3.9003 1.18334 3.76697C1.31667 3.64475 1.47223 3.58086 1.65 3.5753C1.82778 3.56975 1.98334 3.63363 2.11667 3.76697L4.95 6.6003C5.08334 6.73363 5.14723 6.88919 5.14167 7.06697C5.13612 7.24475 5.06667 7.4003 4.93334 7.53363C4.8 7.65586 4.64445 7.71975 4.46667 7.7253C4.28889 7.73086 4.13334 7.66697 4 7.53363L1.16667 4.7003ZM8.23334 6.11697L13.9 0.450301C14.0333 0.316967 14.1889 0.253079 14.3667 0.258634C14.5444 0.26419 14.7 0.333634 14.8333 0.466967C14.9556 0.600301 15.0194 0.755856 15.025 0.933634C15.0306 1.11141 14.9667 1.26697 14.8333 1.4003L8.7 7.53363C8.56667 7.66697 8.41111 7.73363 8.23334 7.73363C8.05556 7.73363 7.9 7.66697 7.76667 7.53363L4.93334 4.7003C4.81112 4.57808 4.75 4.4253 4.75 4.24197C4.75 4.05863 4.81112 3.9003 4.93334 3.76697C5.06667 3.63363 5.225 3.56697 5.40834 3.56697C5.59167 3.56697 5.75 3.63363 5.88334 3.76697L8.23334 6.11697ZM11.05 1.41697L8.7 3.76697C8.57778 3.88919 8.425 3.9503 8.24167 3.9503C8.05834 3.9503 7.9 3.88919 7.76667 3.76697C7.63334 3.63363 7.56667 3.4753 7.56667 3.29197C7.56667 3.10863 7.63334 2.9503 7.76667 2.81697L10.1167 0.466967C10.2389 0.344745 10.3917 0.283634 10.575 0.283634C10.7583 0.283634 10.9167 0.344745 11.05 0.466967C11.1833 0.600301 11.25 0.758634 11.25 0.941967C11.25 1.1253 11.1833 1.28363 11.05 1.41697Z" fill="#6B6B6B"/>
</svg>
