<svg width="25" height="23" viewBox="0 0 25 23" fill="none" xmlns="http://www.w3.org/2000/svg">
<g filter="url(#filter0_d_451_1982)">
<path d="M12.525 21C11.1417 21 9.84169 20.7375 8.62503 20.2125C7.40836 19.6875 6.35002 18.975 5.45002 18.075C4.55002 17.175 3.83752 16.1167 3.31252 14.9C2.78752 13.6833 2.52502 12.3833 2.52502 11C2.52502 9.61667 2.78752 8.31667 3.31252 7.1C3.83752 5.88333 4.55002 4.825 5.45002 3.925C6.35002 3.025 7.40836 2.3125 8.62503 1.7875C9.84169 1.2625 11.1417 1 12.525 1C13.9084 1 15.2084 1.2625 16.425 1.7875C17.6417 2.3125 18.7 3.025 19.6 3.925C20.5 4.825 21.2125 5.88333 21.7375 7.1C22.2625 8.31667 22.525 9.61667 22.525 11C22.525 12.3833 22.2625 13.6833 21.7375 14.9C21.2125 16.1167 20.5 17.175 19.6 18.075C18.7 18.975 17.6417 19.6875 16.425 20.2125C15.2084 20.7375 13.9084 21 12.525 21ZM12.525 19.3333C14.8514 19.3333 16.8219 18.526 18.4365 16.9115C20.051 15.2968 20.8583 13.3263 20.8583 11C20.8583 8.67367 20.051 6.70317 18.4365 5.0885C16.8219 3.474 14.8514 2.66675 12.525 2.66675C10.1987 2.66675 8.22819 3.474 6.61352 5.0885C4.99902 6.70317 4.19177 8.67367 4.19177 11C4.19177 13.3263 4.99902 15.2968 6.61352 16.9115C8.22819 18.526 10.1987 19.3333 12.525 19.3333ZM12.525 17C10.8584 17 9.44169 16.4167 8.27503 15.25C7.10836 14.0833 6.52502 12.6667 6.52502 11C6.52502 9.33333 7.10836 7.91667 8.27503 6.75C9.44169 5.58333 10.8584 5 12.525 5C14.1917 5 15.6084 5.58333 16.775 6.75C17.9417 7.91667 18.525 9.33333 18.525 11C18.525 12.6667 17.9417 14.0833 16.775 15.25C15.6084 16.4167 14.1917 17 12.525 17ZM12.525 15.3333C13.725 15.3333 14.7473 14.9111 15.5918 14.0668C16.4361 13.2223 16.8583 12.2 16.8583 11C16.8583 9.8 16.4361 8.77775 15.5918 7.93325C14.7473 7.08892 13.725 6.66675 12.525 6.66675C11.325 6.66675 10.3028 7.08892 9.45827 7.93325C8.61394 8.77775 8.19178 9.8 8.19178 11C8.19178 12.2 8.61394 13.2223 9.45827 14.0668C10.3028 14.9111 11.325 15.3333 12.525 15.3333ZM12.525 13C11.975 13 11.5042 12.8042 11.1125 12.4125C10.7209 12.0208 10.525 11.55 10.525 11C10.525 10.45 10.7209 9.97917 11.1125 9.5875C11.5042 9.19584 11.975 9 12.525 9C13.075 9 13.5459 9.19584 13.9375 9.5875C14.3292 9.97917 14.525 10.45 14.525 11C14.525 11.55 14.3292 12.0208 13.9375 12.4125C13.5459 12.8042 13.075 13 12.525 13Z" fill="#6B6B6B"/>
</g>
<defs>
<filter id="filter0_d_451_1982" x="0.525024" y="0" width="24" height="24" filterUnits="userSpaceOnUse" color-interpolation-filters="sRGB">
<feFlood flood-opacity="0" result="BackgroundImageFix"/>
<feColorMatrix in="SourceAlpha" type="matrix" values="0 0 0 0 0 0 0 0 0 0 0 0 0 0 0 0 0 0 127 0" result="hardAlpha"/>
<feOffset dy="1"/>
<feGaussianBlur stdDeviation="1"/>
<feComposite in2="hardAlpha" operator="out"/>
<feColorMatrix type="matrix" values="0 0 0 0 0.219608 0 0 0 0 0.219608 0 0 0 0 0.219608 0 0 0 0.06 0"/>
<feBlend mode="normal" in2="BackgroundImageFix" result="effect1_dropShadow_451_1982"/>
<feBlend mode="normal" in="SourceGraphic" in2="effect1_dropShadow_451_1982" result="shape"/>
</filter>
</defs>
</svg>
