<svg width="22" height="20" viewBox="0 0 22 20" fill="none" xmlns="http://www.w3.org/2000/svg">
<path d="M15.5249 18.0005V2.00049C16.0749 2.00049 16.5457 2.19632 16.9374 2.58799C17.3291 2.97966 17.5249 3.45049 17.5249 4.00049V16.0005C17.5249 16.5505 17.3291 17.0213 16.9374 17.413C16.5457 17.8047 16.0749 18.0005 15.5249 18.0005ZM2.5249 20.0005C1.9749 20.0005 1.50407 19.8047 1.1124 19.413C0.720736 19.0213 0.524902 18.5505 0.524902 18.0005V2.00049C0.524902 1.45049 0.720736 0.979655 1.1124 0.587988C1.50407 0.196322 1.9749 0.000488281 2.5249 0.000488281H11.5249C12.0749 0.000488281 12.5457 0.196322 12.9374 0.587988C13.3291 0.979655 13.5249 1.45049 13.5249 2.00049V18.0005C13.5249 18.5505 13.3291 19.0213 12.9374 19.413C12.5457 19.8047 12.0749 20.0005 11.5249 20.0005H2.5249ZM19.5249 16.0005V4.00049C19.9416 4.00049 20.2957 4.14632 20.5874 4.43799C20.8791 4.72965 21.0249 5.08382 21.0249 5.50049V14.5005C21.0249 14.9172 20.8791 15.2713 20.5874 15.563C20.2957 15.8547 19.9416 16.0005 19.5249 16.0005Z" fill="#6B6B6B"/>
</svg>
